<?xml version="1.0" standalone="no"?>
<!DOCTYPE svg PUBLIC "-//W3C//DTD SVG 20010904//EN"
 "http://www.w3.org/TR/2001/REC-SVG-20010904/DTD/svg10.dtd">
<svg version="1.0" xmlns="http://www.w3.org/2000/svg"
 width="272.000000pt" height="272.000000pt" viewBox="0 0 272.000000 272.000000"
 preserveAspectRatio="xMidYMid meet">
<metadata>
Created by potrace 1.14, written by Peter Selinger 2001-2017
</metadata>
<g transform="translate(0.000000,272.000000) scale(0.100000,-0.100000)"
fill="#000000" stroke="none">
<path d="M850 2635 l0 -85 -85 0 -85 0 0 -85 0 -85 -85 0 -85 0 0 -85 0 -85
-85 0 -85 0 0 -170 0 -170 -85 0 -85 0 0 -170 0 -170 -85 0 -85 0 0 -85 0 -85
85 0 85 0 0 -85 0 -85 -85 0 -85 0 0 -85 0 -85 85 0 85 0 0 -170 0 -170 85 0
85 0 0 -170 0 -170 85 0 85 0 0 -85 0 -85 850 0 850 0 0 85 0 85 85 0 85 0 0
170 0 170 85 0 85 0 0 255 0 255 85 0 85 0 0 85 0 85 -85 0 -85 0 0 85 0 85
85 0 85 0 0 85 0 85 -85 0 -85 0 0 85 0 85 -85 0 -85 0 0 170 0 170 -85 0 -85
0 0 85 0 85 -85 0 -85 0 0 85 0 85 -170 0 -170 0 0 85 0 85 -85 0 -85 0 0 -85
0 -85 -255 0 -255 0 0 85 0 85 -85 0 -85 0 0 -85z"/>
</g>
</svg>
